<svg width="20" height="20" viewBox="0 0 20 20" fill="none" xmlns="http://www.w3.org/2000/svg">
<path fill-rule="evenodd" clip-rule="evenodd" d="M13.2558 4.6024C12.5513 3.89792 11.621 3.41882 10.586 3.28617V2.7734H11.9922C12.3158 2.7734 12.5781 2.51106 12.5781 2.18747V0.58593C12.5781 0.26234 12.3158 0 11.9922 0H9.99998C9.67639 0 9.41404 0.26234 9.41404 0.58593V3.28617C8.37896 3.41882 7.44861 3.89792 6.74411 4.6024C6.1038 5.24274 5.6497 6.06961 5.47267 6.99213H14.5272C14.3502 6.06965 13.8961 5.24274 13.2558 4.6024Z" fill="white"/>
<path fill-rule="evenodd" clip-rule="evenodd" d="M0 8.74988V18.2419C0 18.5655 0.262344 18.8279 0.585939 18.8279H4.217V8.16395H0.585939C0.262344 8.16395 0 8.42629 0 8.74988ZM1.75606 10.5077H2.45918C2.78278 10.5077 3.04512 10.77 3.04512 11.0936C3.04512 11.4172 2.78278 11.6795 2.45918 11.6795H1.75606C1.43246 11.6795 1.17012 11.4172 1.17012 11.0936C1.17012 10.77 1.43246 10.5077 1.75606 10.5077ZM1.75606 12.8514H2.45918C2.78278 12.8514 3.04512 13.1137 3.04512 13.4373C3.04512 13.7609 2.78278 14.0232 2.45918 14.0232H1.75606C1.43246 14.0232 1.17012 13.7609 1.17012 13.4373C1.17012 13.1137 1.43246 12.8514 1.75606 12.8514ZM1.75606 15.1951H2.45918C2.78278 15.1951 3.04512 15.4574 3.04512 15.781C3.04512 16.1046 2.78278 16.367 2.45918 16.367H1.75606C1.43246 16.367 1.17012 16.1046 1.17012 15.781C1.17012 15.4574 1.43246 15.1951 1.75606 15.1951Z" fill="white"/>
<path fill-rule="evenodd" clip-rule="evenodd" d="M8.84853 16.0545C8.53619 16.0545 8.28299 16.3077 8.28299 16.62V19.4342C8.28299 19.7466 8.53619 19.9998 8.84853 19.9998C9.16088 19.9998 9.41404 19.7466 9.41404 19.4342V16.62C9.41404 16.3077 9.16084 16.0545 8.84853 16.0545Z" fill="white"/>
<path fill-rule="evenodd" clip-rule="evenodd" d="M11.1515 16.0545C10.8391 16.0545 10.5859 16.3077 10.5859 16.62V19.4342C10.5859 19.7465 10.8391 19.9997 11.1515 19.9997C11.4638 19.9997 11.717 19.7465 11.717 19.4342V16.62C11.717 16.3077 11.4638 16.0545 11.1515 16.0545Z" fill="white"/>
<path fill-rule="evenodd" clip-rule="evenodd" d="M19.4141 8.16395H15.7796V18.8279H19.4141C19.7377 18.8279 20 18.5655 20 18.2419V8.74988C20 8.42629 19.7377 8.16395 19.4141 8.16395ZM18.2405 16.367H17.5373C17.2137 16.367 16.9514 16.1046 16.9514 15.781C16.9514 15.4574 17.2137 15.1951 17.5373 15.1951H18.2405C18.5641 15.1951 18.8264 15.4574 18.8264 15.781C18.8264 16.1046 18.5641 16.367 18.2405 16.367ZM18.2405 14.0233H17.5373C17.2137 14.0233 16.9514 13.7609 16.9514 13.4374C16.9514 13.1138 17.2137 12.8514 17.5373 12.8514H18.2405C18.5641 12.8514 18.8264 13.1138 18.8264 13.4374C18.8264 13.7609 18.5641 14.0233 18.2405 14.0233ZM18.2405 11.6796H17.5373C17.2137 11.6796 16.9514 11.4172 16.9514 11.0936C16.9514 10.7701 17.2137 10.5077 17.5373 10.5077H18.2405C18.5641 10.5077 18.8264 10.7701 18.8264 11.0936C18.8264 11.4172 18.5641 11.6796 18.2405 11.6796Z" fill="white"/>
<path fill-rule="evenodd" clip-rule="evenodd" d="M5.3906 19.4141C5.3906 19.7589 5.68595 20.0275 6.02825 19.9977L7.11095 19.9977L7.11111 15.4685C7.11111 15.145 7.37345 14.8826 7.69705 14.8826H12.303C12.6265 14.8826 12.8889 15.145 12.8889 15.4685L12.8897 19.9976L14.0234 19.9975C14.3457 19.9975 14.607 19.7362 14.607 19.4139L14.6092 8.16399H5.3906V19.4141ZM7.69697 9.80456H12.303C12.6265 9.80456 12.8889 10.0669 12.8889 10.3905C12.8889 10.7141 12.6265 10.9764 12.303 10.9764H7.69697C7.37337 10.9764 7.11103 10.7141 7.11103 10.3905C7.11103 10.0669 7.37337 9.80456 7.69697 9.80456ZM7.69697 12.1483H12.303C12.6265 12.1483 12.8889 12.4106 12.8889 12.7342C12.8889 13.0578 12.6265 13.3201 12.303 13.3201H7.69697C7.37337 13.3201 7.11103 13.0578 7.11103 12.7342C7.11103 12.4106 7.37337 12.1483 7.69697 12.1483Z" fill="white"/>
</svg>
