<svg width="16" height="12" viewBox="0 0 16 12" fill="none" xmlns="http://www.w3.org/2000/svg">
<path d="M1.53527 3.57428C1.73852 3.70699 2.34825 4.09644 3.36447 4.7484C4.38069 5.40037 5.1624 5.89944 5.70334 6.25139C5.76275 6.28889 5.88783 6.37255 6.08169 6.50237C6.27555 6.63219 6.43502 6.73604 6.56322 6.81681C6.69142 6.89759 6.84464 6.98702 7.02599 7.0851C7.20735 7.18319 7.37932 7.25819 7.53879 7.30723C7.69826 7.35628 7.84835 7.38224 7.98593 7.38224H8.00469C8.14227 7.38224 8.28923 7.35628 8.45183 7.30723C8.6113 7.25819 8.78327 7.18319 8.96463 7.0851C9.14598 6.98702 9.30233 6.89759 9.4274 6.81681C9.5556 6.73604 9.71507 6.63219 9.90893 6.50237C10.1028 6.37255 10.2279 6.28889 10.2873 6.25139C10.8345 5.89944 12.229 5.00804 14.4647 3.57428C14.8994 3.29446 15.2621 2.95693 15.5529 2.56171C15.8437 2.1665 15.9906 1.75108 15.9906 1.31836C15.9906 0.954873 15.8499 0.646198 15.5654 0.386565C15.2902 0.129817 14.9556 0 14.5679 0H1.42896C0.969318 0 0.615986 0.141356 0.368966 0.426952C0.121946 0.712549 0 1.07027 0 1.5001C0 1.84628 0.162595 2.22131 0.490913 2.62518C0.81923 3.02617 1.16631 3.3435 1.53527 3.57428Z" fill="white"/>
<path d="M15.1057 4.86009C13.1546 6.08036 11.6725 7.02658 10.6594 7.70163C10.3217 7.93241 10.0465 8.11127 9.83389 8.24109C9.62126 8.3709 9.34297 8.50072 8.98964 8.63631C8.63944 8.77189 8.31112 8.83824 8.00782 8.83824H7.98906C7.68575 8.83824 7.35744 8.77189 7.00723 8.63631C6.65703 8.50072 6.37561 8.3709 6.16299 8.24109C5.95036 8.11127 5.6752 7.93241 5.3375 7.70163C4.53391 7.15928 3.05491 6.21018 0.900528 4.86009C0.56283 4.6495 0.262654 4.41006 0 4.14177V10.6816C0 11.0451 0.140707 11.3538 0.418996 11.6134C0.697284 11.8702 1.03498 12 1.42896 12H14.571C14.965 12 15.2996 11.8702 15.581 11.6134C15.8593 11.3567 16 11.0451 16 10.6816V4.14177C15.7405 4.40429 15.4434 4.64373 15.1057 4.86009Z" fill="white"/>
</svg>
