<svg width="16" height="16" viewBox="0 0 16 16" fill="none" xmlns="http://www.w3.org/2000/svg">
<path fill-rule="evenodd" clip-rule="evenodd" d="M1.77775 7.11111C1.77775 4.16978 4.16972 1.77778 7.11101 1.77778C10.0523 1.77778 12.4443 4.16978 12.4443 7.11111C12.4443 10.0524 10.0523 12.4444 7.11101 12.4444C4.16972 12.4444 1.77775 10.0524 1.77775 7.11111ZM15.7393 14.4827L12.7216 11.464C13.6576 10.2604 14.222 8.752 14.222 7.11111C14.222 3.19022 11.0318 0 7.11101 0C3.19018 0 0 3.19022 0 7.11111C0 11.032 3.19018 14.2222 7.11101 14.2222C8.75188 14.2222 10.2603 13.6578 11.4638 12.7218L14.4825 15.7396C14.6558 15.9129 14.8833 16 15.1109 16C15.3385 16 15.566 15.9129 15.7393 15.7396C16.0869 15.392 16.0869 14.8302 15.7393 14.4827Z" fill="#008ED8"/>
</svg>
