<svg width="64" height="34" viewBox="0 0 64 34" fill="none" xmlns="http://www.w3.org/2000/svg">
<path d="M49 22.4152V11.5848L60.0195 5.38639C61.3527 4.63646 63 5.59989 63 7.12954V26.8705C63 28.4001 61.3527 29.3635 60.0195 28.6136L49 22.4152Z" stroke="#008ED8" stroke-width="2"/>
<path d="M58 22L58 27" stroke="#008ED8" stroke-width="2" stroke-linecap="round"/>
<path d="M58 6.5V16" stroke="#008ED8" stroke-width="2" stroke-linecap="round"/>
<rect x="1" y="1" width="48" height="32" rx="2" stroke="#008ED8" stroke-width="2"/>
<path d="M30.4108 16.1284C31.0905 16.5107 31.0905 17.4893 30.4108 17.8716L20.4903 23.4519C19.8237 23.8268 19 23.3451 19 22.5803L19 11.4197C19 10.6549 19.8237 10.1732 20.4903 10.5481L30.4108 16.1284Z" stroke="#008ED8" stroke-width="2"/>
</svg>
