<svg width="48" height="48" viewBox="0 0 48 48" fill="none" xmlns="http://www.w3.org/2000/svg">
<circle cx="24" cy="24" r="23" fill="white" stroke="#21AF5A" stroke-width="2"/>
<path d="M36.6936 25.4973L32.743 27.6544L30.2048 26.2685L33.2074 24.6289C33.4769 24.4817 33.6429 24.21 33.6429 23.9156C33.6429 23.6215 33.4769 23.3495 33.2074 23.2025L30.0503 21.4784L32.7428 20.008L36.6936 22.1654C36.8307 22.2404 36.9805 22.2758 37.1282 22.2758C37.4293 22.2758 37.7218 22.1282 37.883 21.864C38.1236 21.4701 37.9808 20.9663 37.5643 20.739L34.4845 19.0572L36.6548 17.8718C37.0713 17.6445 37.214 17.1408 36.9735 16.7469C36.7331 16.3529 36.2006 16.2179 35.7841 16.4456L33.6135 17.6306V14.2669C33.6135 13.8121 33.2237 13.4434 32.7428 13.4434C32.262 13.4434 31.8721 13.8121 31.8721 14.2669V18.5817L29.2569 20.0097V16.7304C29.2569 16.4362 29.0908 16.1643 28.8214 16.0171C28.5519 15.8701 28.2201 15.8701 27.9507 16.0171L24.8706 17.699V14.7582L28.8214 12.6009C29.2379 12.3736 29.3806 11.8698 29.1401 11.4759C28.8995 11.082 28.3672 10.9472 27.9507 11.1745L24.8706 12.8564V10.8235C24.8706 10.3687 24.4807 10 23.9999 10C23.519 10 23.1292 10.3687 23.1292 10.8235V12.8564L20.0491 11.1745C19.6328 10.947 19.1 11.082 18.8597 11.4759C18.6194 11.8698 18.7619 12.3736 19.1784 12.6009L23.1292 14.7582V17.699L20.0491 16.0171C19.7799 15.8699 19.4478 15.8699 19.1784 16.0171C18.9089 16.1643 18.7431 16.436 18.7431 16.7304V20.0097L16.1277 18.5815V14.2669C16.1277 13.8121 15.7378 13.4434 15.2569 13.4434C14.7761 13.4434 14.3862 13.8121 14.3862 14.2669V17.6306L12.5247 16.6142C12.1082 16.3867 11.5758 16.5217 11.3353 16.9156C11.095 17.3095 11.2377 17.8133 11.654 18.0406L13.5155 19.057L10.4354 20.7388C10.019 20.9663 9.87644 21.4698 10.1168 21.8638C10.278 22.128 10.5707 22.2758 10.8716 22.2758C11.0193 22.2758 11.1691 22.2402 11.3062 22.1652L15.2569 20.0078L17.9497 21.4784L14.7923 23.2023C14.5229 23.3495 14.3569 23.6212 14.3569 23.9156C14.3569 24.2098 14.5229 24.4817 14.7923 24.6287L17.7952 26.2685L15.2569 27.6544L11.3062 25.4971C10.8897 25.2696 10.3571 25.4046 10.1168 25.7985C9.87644 26.1924 10.019 26.6961 10.4354 26.9234L13.5155 28.6053L11.654 29.6217C11.2377 29.8492 11.095 30.3527 11.3353 30.7466C11.4966 31.0109 11.7893 31.1587 12.0901 31.1587C12.2378 31.1587 12.3876 31.123 12.5247 31.0481L14.3862 30.0316V33.3956C14.3862 33.8504 14.7761 34.2191 15.2569 34.2191C15.7378 34.2191 16.1277 33.8504 16.1277 33.3956V29.0808L18.7431 27.6525V31.1008C18.7431 31.395 18.9089 31.6669 19.1784 31.8139C19.4478 31.9611 19.7799 31.9611 20.0491 31.8139L23.1292 30.1323V32.9042L19.1784 35.0616C18.7619 35.2889 18.6194 35.7926 18.8597 36.1866C19.1002 36.5805 19.6328 36.7155 20.0491 36.488L23.1292 34.8061V37.1765C23.1292 37.6313 23.519 38 23.9999 38C24.4807 38 24.8706 37.6313 24.8706 37.1765V34.8061L27.9507 36.488C28.0878 36.563 28.2375 36.5984 28.3852 36.5984C28.6861 36.5984 28.9788 36.4508 29.1401 36.1866C29.3806 35.7926 29.2379 35.2889 28.8214 35.0616L24.8706 32.9042V30.1323L27.9507 31.8141C28.0853 31.8876 28.2357 31.9246 28.3862 31.9246C28.5363 31.9246 28.6868 31.8876 28.8214 31.8141C29.0908 31.6669 29.2569 31.3952 29.2569 31.101V27.6527L31.8723 29.081V33.3958C31.8723 33.8506 32.2622 34.2193 32.743 34.2193C33.2239 34.2193 33.6138 33.8506 33.6138 33.3958V30.0319L35.7841 31.217C35.9212 31.292 36.0709 31.3277 36.2186 31.3277C36.5197 31.3277 36.8122 31.1799 36.9735 30.9156C37.214 30.5217 37.0713 30.018 36.6548 29.7907L34.4845 28.6055L37.5646 26.9236C37.981 26.6964 38.1236 26.1926 37.8832 25.7987C37.6427 25.4046 37.1101 25.2698 36.6936 25.4973ZM31.0308 23.9156L28.4634 25.3176L25.7413 23.8312L28.3089 22.4292L31.0308 23.9156ZM27.5152 18.1568V20.9608L24.8706 22.4049V19.6009L27.5152 18.1568ZM20.4846 18.1568L23.1292 19.6009V22.4049L20.4846 20.9608V18.1568ZM16.9692 23.9156L19.6911 22.4292L22.2585 23.8312L19.5366 25.3176L16.9692 23.9156ZM20.4846 29.6745V26.7017L23.1292 25.2576V28.2304L20.4846 29.6745ZM27.5152 29.6745L24.8706 28.2304V25.2576L27.5154 26.7017V29.6745H27.5152Z" fill="#21AF5A"/>
</svg>
