<svg width="48" height="48" viewBox="0 0 48 48" fill="none" xmlns="http://www.w3.org/2000/svg">
<circle cx="24" cy="24" r="23" fill="white" stroke="#21AF5A" stroke-width="2"/>
<path d="M34.4689 20.4625C34.491 20.2234 34.5022 19.9834 34.5022 19.7439C34.5022 15.4739 31.0318 12 26.7661 12C24.3385 12 22.078 13.1288 20.6169 15.0453C17.1807 14.6212 14.0936 17.0772 13.6632 20.4463C11.607 20.6659 10 22.4128 10 24.528C10 26.7919 11.84 28.6336 14.1016 28.6336H18.3216C18.2527 29.1324 18.6399 29.5661 19.1328 29.5661H21.7182L20.1651 35.5821C19.9436 36.4401 21.0641 36.9915 21.6079 36.2895L27.5383 28.6336H33.8984C36.16 28.6336 38 26.7919 38 24.528C38 22.4582 36.4615 20.7413 34.4689 20.4625ZM22.7487 32.1379L23.5715 28.9508C23.7053 28.4324 23.3133 27.9256 22.7772 27.9256H20.2562L22.5783 20.6599H25.419L23.7768 25.3053C23.5881 25.8387 23.9849 26.3989 24.5502 26.3989H27.1944L22.7487 32.1379ZM33.8984 26.9931H28.8092L29.5157 26.0809C29.933 25.542 29.5465 24.7584 28.8672 24.7584H25.7102L27.3525 20.113C27.5411 19.5796 27.1443 19.0194 26.579 19.0194H21.9792C21.6224 19.0194 21.3065 19.2501 21.1979 19.59L18.8318 26.9931H14.1016C12.7446 26.9931 11.6406 25.8873 11.6406 24.528C11.6406 23.169 12.7446 22.0634 14.1016 22.0634H14.433C14.8861 22.0634 15.2533 21.6962 15.2533 21.2432C15.2533 18.3409 17.9289 16.1239 20.8169 16.7409C21.1474 16.8116 21.4876 16.6721 21.6735 16.3898C22.8071 14.6683 24.7109 13.6405 26.7661 13.6405C30.1271 13.6405 32.8616 16.3785 32.8616 19.7439C32.8616 20.1873 32.8132 20.6325 32.7177 21.0674C32.6055 21.5783 32.995 22.0634 33.5189 22.0634H33.8984C35.2554 22.0634 36.3594 23.169 36.3594 24.528C36.3594 25.8873 35.2554 26.9931 33.8984 26.9931Z" fill="#21AF5A"/>
</svg>
