<svg width="48" height="48" viewBox="0 0 48 48" fill="none" xmlns="http://www.w3.org/2000/svg">
<circle cx="24" cy="24" r="23" fill="white" stroke="#21AF5A" stroke-width="2"/>
<path d="M12.7368 28.8364C14.9927 31.1059 18.5842 31.302 21.0706 29.2912C23.5566 27.2804 24.1399 23.7078 22.4236 21.0021L17.6831 13.5318C17.5681 13.351 17.3696 13.2414 17.1562 13.2414C16.9429 13.2414 16.7444 13.351 16.6294 13.5318L11.8889 21.0021C10.3103 23.4904 10.6628 26.7487 12.7368 28.8364ZM12.9424 21.6794L17.1562 15.0391L21.3701 21.6794C22.7429 23.844 22.2764 26.7018 20.2874 28.3103C18.2986 29.9188 15.4253 29.762 13.6208 27.9466C11.9617 26.2767 11.6794 23.67 12.9424 21.6794Z" fill="#21AF5A"/>
<path d="M18.1174 27.9542C18.1887 27.954 18.2595 27.9417 18.3267 27.9176C20.1035 27.2804 21.0327 25.3156 20.4036 23.5257C20.2905 23.1972 19.9343 23.0235 19.6082 23.1373C19.282 23.2513 19.1094 23.6095 19.2224 23.9378C19.2234 23.9408 19.2244 23.9437 19.2253 23.9464C19.6245 25.0817 19.0352 26.328 17.908 26.732C17.6211 26.8342 17.449 27.1298 17.5007 27.4318C17.5522 27.7338 17.8127 27.9545 18.1172 27.9542H18.1174Z" fill="#21AF5A"/>
<path d="M28.0249 23.1749C29.9424 25.1033 32.9949 25.2699 35.1082 23.5609C37.2212 21.8519 37.7168 18.8157 36.2583 16.5157L32.3081 10.2904C32.1931 10.1096 31.9946 10 31.7812 10C31.5679 10 31.3694 10.1096 31.2544 10.2904L27.3042 16.5157C25.9622 18.6306 26.262 21.4005 28.0249 23.1749ZM28.3577 17.1931L31.7812 11.7977L35.2048 17.1931C36.291 18.9044 35.9646 21.1584 34.4387 22.4868C32.9128 23.815 30.6497 23.815 29.1238 22.4868C27.5979 21.1584 27.2715 18.9044 28.3577 17.1931Z" fill="#21AF5A"/>
<path d="M32.0024 22.1177C32.0737 22.1177 32.1445 22.1055 32.2117 22.0814C34.0686 21.4174 35.0396 19.3644 34.3804 17.4951C34.3076 17.2814 34.127 17.1234 33.9065 17.0808C33.6863 17.0383 33.4602 17.1179 33.3142 17.2895C33.1685 17.461 33.125 17.6981 33.2004 17.9107L33.2024 17.9161C33.6309 19.1304 32.9998 20.4645 31.7932 20.8957C31.5061 20.998 31.3342 21.2933 31.3857 21.5956C31.4375 21.8976 31.698 22.118 32.0024 22.1177Z" fill="#21AF5A"/>
<path d="M34 35.2321C32.7915 35.2321 32.1448 35.7204 31.625 36.1128C31.1594 36.4645 30.7915 36.7419 30 36.7419C29.2085 36.7419 28.8406 36.4645 28.375 36.1128C27.8552 35.7204 27.2083 35.2321 26 35.2321C24.7917 35.2321 24.1448 35.7204 23.625 36.1128C23.1594 36.4645 22.7917 36.7419 22 36.7419C21.2083 36.7419 20.8406 36.4645 20.375 36.1128C19.8552 35.7204 19.2085 35.2321 18 35.2321C16.7915 35.2321 16.1448 35.7204 15.625 36.1128C15.1594 36.4645 14.7917 36.7419 14 36.7419C13.2083 36.7419 12.8406 36.4645 12.375 36.1128C11.8552 35.7204 11.2083 35.2321 10 35.2321V36.4903C10.7915 36.4903 11.1594 36.7679 11.625 37.1193C12.1448 37.5117 12.7917 38 14 38C15.2083 38 15.8552 37.5117 16.375 37.1193C16.8406 36.7679 17.2083 36.4903 18 36.4903C18.7917 36.4903 19.1594 36.7679 19.625 37.1193C20.1448 37.5117 20.7915 38 22 38C23.2085 38 23.8552 37.5117 24.375 37.1193C24.8406 36.7679 25.2083 36.4903 26 36.4903C26.7917 36.4903 27.1594 36.7679 27.625 37.1193C28.1448 37.5117 28.7917 38 30 38C31.2083 38 31.8552 37.5117 32.375 37.1193C32.8406 36.7679 33.2085 36.4903 34 36.4903C34.7915 36.4903 35.1594 36.7679 35.625 37.1193C36.1448 37.5117 36.7917 38 38 38V36.7419C37.2083 36.7419 36.8406 36.4645 36.375 36.1128C35.855 35.7204 35.208 35.2321 34 35.2321Z" fill="#21AF5A"/>
<path d="M34 31.4578C32.7915 31.4578 32.1448 31.946 31.625 32.3385C31.1594 32.6901 30.7915 32.9675 30 32.9675C29.2085 32.9675 28.8406 32.6901 28.375 32.3385C27.8552 31.946 27.2083 31.4578 26 31.4578C24.7917 31.4578 24.1448 31.946 23.625 32.3385C23.1594 32.6901 22.7917 32.9675 22 32.9675C21.2083 32.9675 20.8406 32.6901 20.375 32.3385C19.8552 31.946 19.2085 31.4578 18 31.4578C16.7915 31.4578 16.1448 31.946 15.625 32.3385C15.1594 32.6901 14.7917 32.9675 14 32.9675C13.2083 32.9675 12.8406 32.6901 12.375 32.3385C11.8552 31.946 11.2083 31.4578 10 31.4578V32.7159C10.7915 32.7159 11.1594 32.9936 11.625 33.345C12.1448 33.7374 12.7917 34.2256 14 34.2256C15.2083 34.2256 15.8552 33.7374 16.375 33.345C16.8406 32.9936 17.2083 32.7159 18 32.7159C18.7917 32.7159 19.1594 32.9936 19.625 33.345C20.1448 33.7374 20.7915 34.2256 22 34.2256C23.2085 34.2256 23.8552 33.7374 24.375 33.345C24.8406 32.9936 25.2083 32.7159 26 32.7159C26.7917 32.7159 27.1594 32.9936 27.625 33.345C28.1448 33.7374 28.7917 34.2256 30 34.2256C31.2083 34.2256 31.8552 33.7374 32.375 33.345C32.8406 32.9936 33.2085 32.7159 34 32.7159C34.7915 32.7159 35.1594 32.9936 35.625 33.345C36.1448 33.7374 36.7917 34.2256 38 34.2256V32.9675C37.2083 32.9675 36.8406 32.6901 36.375 32.3385C35.855 31.946 35.208 31.4578 34 31.4578Z" fill="#21AF5A"/>
</svg>
