<svg width="44" height="40" viewBox="0 0 44 40" fill="none" xmlns="http://www.w3.org/2000/svg">
<path d="M43.2064 13.5974C43.1298 13.2931 42.9278 13.0361 42.6514 12.8877C42.3757 12.7402 42.0498 12.7152 41.7541 12.8191C39.1616 13.7299 35.1618 14.3159 30.6632 14.3159C29.5695 14.3159 28.5154 14.2742 27.4934 14.2084C26.965 16.5959 26.1206 18.7882 25.042 20.7189C25.0945 20.7168 25.1446 20.7082 25.1975 20.7082C26.5954 20.7082 27.7284 20.5916 27.7284 21.5333C27.7284 22.4749 26.5953 24.1185 25.1975 24.1185C24.3832 24.1185 23.6663 23.855 23.2037 23.4526C21.8066 25.1871 20.1744 26.5548 18.377 27.4593C20.4036 34.2808 25.1417 39.0661 30.6632 39.0661C38.0294 39.0661 44.0007 30.5501 44.0007 20.0451C44.0006 17.7791 43.7176 15.6107 43.2064 13.5974ZM35.9784 33.5121C35.9548 33.6123 35.8802 33.694 35.7822 33.7262C35.684 33.759 35.5759 33.7384 35.4971 33.6717C34.4581 32.7987 32.6906 32.2186 30.6633 32.2186C28.6357 32.2186 26.8683 32.7987 25.8293 33.6717C25.7504 33.7376 25.6423 33.7584 25.5442 33.7262C25.4461 33.6933 25.3717 33.6123 25.348 33.5121C25.262 33.1461 25.2091 32.7687 25.2091 32.3763C25.2091 29.364 27.6512 26.9221 30.6634 26.9221C33.6755 26.9221 36.1174 29.3641 36.1174 32.3763C36.1172 32.7687 36.0643 33.1462 35.9784 33.5121ZM36.1287 24.1184C34.7308 24.1184 33.5979 22.4748 33.5979 21.5332C33.5979 20.5915 34.7309 20.7081 36.1287 20.7081C37.5266 20.7081 38.6596 21.4716 38.6596 22.4133C38.6595 23.3549 37.5266 24.1184 36.1287 24.1184Z" fill="#00498C"/>
<path d="M26.675 8.22046C26.675 5.9547 26.3921 3.78619 25.8808 1.77306C25.8042 1.46872 25.6022 1.21153 25.3258 1.06331C25.1625 0.975994 24.9813 0.931641 24.7987 0.931641C24.674 0.931641 24.5487 0.95219 24.4285 0.994684C21.8361 1.90547 17.8363 2.49137 13.3376 2.49137C8.83879 2.49137 4.83904 1.90547 2.24661 0.994684C2.12703 0.95219 2.00243 0.931641 1.87783 0.931641C1.6953 0.931641 1.51324 0.97646 1.34921 1.06405C1.07351 1.21227 0.870899 1.46937 0.794186 1.77306C0.282954 3.78628 0 5.9547 0 8.22046C0 18.7256 5.97123 27.2414 13.3376 27.2414C20.7038 27.2414 26.675 18.7256 26.675 8.22046ZM5.34097 10.5845C5.34097 9.64267 6.474 8.87936 7.87193 8.87936C9.26978 8.87936 10.4028 10.5228 10.4028 11.4646C10.4028 12.4063 9.26978 12.2897 7.87193 12.2897C6.474 12.2897 5.34097 11.5262 5.34097 10.5845ZM13.3376 23.6455C10.3253 23.6455 7.88346 21.2035 7.88346 18.1915C7.88346 17.799 7.93637 17.4215 8.02229 17.0555C8.04591 16.9555 8.12048 16.8745 8.21849 16.8414C8.31668 16.8092 8.42473 16.83 8.50358 16.8959C9.5426 17.7689 11.3101 18.349 13.3375 18.349C15.365 18.349 17.1324 17.7689 18.1713 16.8959C18.2503 16.8292 18.3583 16.8086 18.4564 16.8414C18.5545 16.8738 18.629 16.9555 18.6526 17.0555C18.7385 17.4215 18.7915 17.799 18.7915 18.1915C18.7916 21.2035 16.3497 23.6455 13.3376 23.6455ZM16.2722 11.4646C16.2722 10.5228 17.4052 8.87936 18.8032 8.87936C20.201 8.87936 21.334 9.64267 21.334 10.5845C21.334 11.5262 20.201 12.2897 18.8032 12.2897C17.4052 12.2897 16.2722 12.4063 16.2722 11.4646Z" fill="#008ED8"/>
</svg>
