<svg width="24" height="16" viewBox="0 0 24 16" fill="none" xmlns="http://www.w3.org/2000/svg">
<path d="M23.9062 8.39658C24.0313 8.14944 24.0313 7.85052 23.9062 7.60338C21.6135 3.07455 17.1415 0 12 0C6.85857 0 2.38653 3.07459 0.0938235 7.60338C-0.0312745 7.85052 -0.0312745 8.14944 0.0938235 8.39658C2.38657 12.9254 6.85849 16 12 16C17.1415 16 21.6134 12.9254 23.9062 8.39658ZM12 14.1365C8.841 14.1365 6.28018 11.3891 6.28018 8C6.28018 4.61092 8.841 1.86344 12 1.86344C15.159 1.86344 17.7198 4.61087 17.7198 8C17.7198 11.3891 15.159 14.1365 12 14.1365Z" fill="white"/>
<path d="M12 4.87274C11.7594 4.87274 11.5257 4.90425 11.302 4.96319C11.5311 5.2476 11.67 5.61797 11.67 6.02334C11.67 6.91949 10.9928 7.646 10.1575 7.646C9.77967 7.646 9.43445 7.49702 9.16935 7.25123C9.11441 7.49117 9.08504 7.74188 9.08504 8.00004C9.08504 9.72721 10.3901 11.1273 11.9999 11.1273C13.6098 11.1273 14.9148 9.72717 14.9148 8.00004C14.9148 6.27292 13.6099 4.87274 12 4.87274Z" fill="white"/>
</svg>
