<svg width="24" height="26" viewBox="0 0 24 26" fill="none" xmlns="http://www.w3.org/2000/svg">
<path d="M23.8037 4.68852C23.6635 4.00656 23.2991 3.40984 22.8224 2.95519C22.0654 2.18798 21.028 1.73333 19.9065 1.73333H18.1682V0.539891C18.1682 0.255738 17.9439 0 17.6355 0C17.3551 0 17.1028 0.227322 17.1028 0.539891V1.70492H6.95327V0.539891C6.95327 0.255738 6.72897 0 6.42056 0C6.14019 0 5.88785 0.227322 5.88785 0.539891V1.70492H4.14953C3.28037 1.70492 2.49533 1.96066 1.82243 2.4153C1.59813 2.55738 1.40187 2.72787 1.20561 2.92678C0.448598 3.69399 0 4.74536 0 5.88197V21.823C0 22.988 0.476636 24.0393 1.20561 24.7781C1.96262 25.5454 3 26 4.12149 26H19.8785C21.028 26 22.0654 25.5169 22.7944 24.7781C23.5514 24.0109 24 22.9596 24 21.823V5.9388C24 5.51257 23.9439 5.08634 23.8037 4.68852ZM22.9907 21.8514C22.9907 22.7322 22.6542 23.5279 22.0935 24.0962C21.5327 24.6645 20.7477 25.0055 19.9065 25.0055H4.14953C3.30841 25.0055 2.52336 24.6645 1.96262 24.0962C1.40187 23.5279 1.06542 22.7322 1.06542 21.8798V9.2918H22.9907V21.8514ZM23.0187 8.24044H1.06542V5.91038C1.06542 5.05792 1.40187 4.2623 1.96262 3.69399C2.52336 3.12568 3.30841 2.7847 4.14953 2.7847H5.88785V3.94973C5.88785 4.23388 6.11215 4.48962 6.42056 4.48962C6.70093 4.48962 6.95327 4.2623 6.95327 3.94973V2.7847H17.1308V3.94973C17.1308 4.23388 17.3551 4.48962 17.6635 4.48962C17.9439 4.48962 18.1963 4.2623 18.1963 3.94973V2.7847H19.9346C20.7757 2.7847 21.5607 3.12568 22.1215 3.69399C22.5421 4.12022 22.8505 4.66011 22.9626 5.28525C22.9907 5.48415 23.0187 5.71148 23.0187 5.91038V8.24044Z" fill="#2B5D84"/>
<path d="M5.15888 14.1224C5.60748 14.1224 6.02804 13.9235 6.33645 13.6393C6.64486 13.3268 6.81308 12.9005 6.81308 12.4459C6.81308 11.9913 6.61682 11.565 6.33645 11.2525C6.02804 10.9683 5.60748 10.7694 5.15888 10.7694C4.71028 10.7694 4.28972 10.9683 3.98131 11.2525C3.6729 11.565 3.50467 11.9913 3.50467 12.4459C3.50467 12.9005 3.70093 13.3268 3.98131 13.6393C4.28972 13.9519 4.71028 14.1224 5.15888 14.1224ZM4.68224 11.9913C4.79439 11.8776 4.93458 11.8208 5.13084 11.8208C5.29906 11.8208 5.46729 11.8776 5.57944 11.9913C5.69159 12.1049 5.74766 12.247 5.74766 12.4459C5.7757 12.6448 5.69159 12.7869 5.57944 12.9005C5.46729 13.0142 5.3271 13.071 5.13084 13.071C4.96262 13.071 4.79439 13.0142 4.68224 12.9005C4.57009 12.7869 4.51402 12.6448 4.51402 12.4459C4.51402 12.2754 4.57009 12.1049 4.68224 11.9913Z" fill="#2B5D84"/>
<path d="M9.72897 14.1224C10.1776 14.1224 10.5981 13.9235 10.9065 13.6393C11.215 13.3268 11.3832 12.9005 11.3832 12.4459C11.3832 11.9913 11.1869 11.565 10.9065 11.2525C10.6262 10.9399 10.2056 10.7694 9.72897 10.7694C9.28037 10.7694 8.85981 10.9683 8.5514 11.2525C8.24299 11.565 8.07477 11.9913 8.07477 12.4459C8.07477 12.9005 8.27103 13.3268 8.5514 13.6393C8.85981 13.9519 9.28037 14.1224 9.72897 14.1224ZM9.28037 11.9913C9.39252 11.8776 9.53271 11.8208 9.72897 11.8208C9.8972 11.8208 10.0654 11.8776 10.1776 11.9913C10.2897 12.1049 10.3458 12.247 10.3458 12.4459C10.3458 12.6448 10.2897 12.7869 10.1776 12.9005C10.0654 13.0142 9.92523 13.071 9.72897 13.071C9.56075 13.071 9.39252 13.0142 9.28037 12.9005C9.16822 12.7869 9.11215 12.6448 9.11215 12.4459C9.11215 12.2754 9.16822 12.1049 9.28037 11.9913Z" fill="#2B5D84"/>
<path d="M14.3271 14.1224C14.7757 14.1224 15.1963 13.9235 15.5047 13.6393C15.8131 13.3268 15.9813 12.9005 15.9813 12.4459C15.9813 11.9913 15.785 11.565 15.5047 11.2525C15.2243 10.9399 14.7757 10.7694 14.3271 10.7694C13.8785 10.7694 13.4579 10.9683 13.1495 11.2525C12.8411 11.5366 12.6729 11.9913 12.6729 12.4459C12.6729 12.9005 12.8692 13.3268 13.1495 13.6393C13.4579 13.9519 13.8785 14.1224 14.3271 14.1224ZM13.8785 12.0197C13.9907 11.906 14.1308 11.8492 14.3271 11.8492C14.4953 11.8492 14.6636 11.906 14.7757 12.0197C14.8878 12.1333 14.9439 12.2754 14.9439 12.4743C14.9439 12.6448 14.8598 12.7869 14.7477 12.9005C14.6355 13.0142 14.4953 13.071 14.2991 13.071C14.1308 13.071 13.9626 13.0142 13.8505 12.9005C13.7664 12.7869 13.7103 12.6448 13.7103 12.4743C13.7103 12.3038 13.7664 12.1333 13.8785 12.0197Z" fill="#2B5D84"/>
<path d="M18.8972 14.1224C19.3458 14.1224 19.7664 13.9235 20.0748 13.6393C20.3832 13.3268 20.5514 12.9005 20.5514 12.4459C20.5514 11.9913 20.3551 11.565 20.0748 11.2525C19.7944 10.9683 19.3738 10.7694 18.8972 10.7694C18.4486 10.7694 18.028 10.9683 17.7196 11.2525C17.4112 11.565 17.243 11.9913 17.243 12.4459C17.243 12.9005 17.4393 13.3268 17.7196 13.6393C18.028 13.9519 18.4486 14.1224 18.8972 14.1224ZM18.4486 11.9913C18.5607 11.8776 18.7009 11.8208 18.8972 11.8208C19.0654 11.8208 19.2336 11.8776 19.3458 11.9913C19.4579 12.1049 19.514 12.247 19.514 12.4459C19.514 12.6448 19.4579 12.7869 19.3458 12.9005C19.2336 13.0142 19.0935 13.071 18.8972 13.071C18.729 13.071 18.5607 13.0142 18.4486 12.9005C18.3364 12.7869 18.2804 12.6448 18.2804 12.4459C18.2804 12.2754 18.3364 12.1049 18.4486 11.9913Z" fill="#2B5D84"/>
<path d="M5.15888 18.7825C5.60748 18.7825 6.02804 18.5836 6.33645 18.2995C6.64486 17.9869 6.81308 17.5607 6.81308 17.106C6.81308 16.6514 6.61682 16.2251 6.33645 15.9126C6.02804 15.6 5.60748 15.4295 5.15888 15.4295C4.71028 15.4295 4.28972 15.6284 3.98131 15.9126C3.6729 16.2251 3.50467 16.6514 3.50467 17.106C3.50467 17.5607 3.70093 17.9869 3.98131 18.2995C4.28972 18.612 4.71028 18.7825 5.15888 18.7825ZM4.68224 16.6514C4.79439 16.5377 4.93458 16.4809 5.13084 16.4809C5.29906 16.4809 5.46729 16.5377 5.57944 16.6514C5.69159 16.765 5.74766 16.9071 5.74766 17.106C5.7757 17.2765 5.69159 17.447 5.57944 17.5607C5.46729 17.6743 5.3271 17.7311 5.13084 17.7311C4.96262 17.7311 4.79439 17.6743 4.68224 17.5607C4.57009 17.447 4.51402 17.3049 4.51402 17.106C4.51402 16.9355 4.57009 16.765 4.68224 16.6514Z" fill="#2B5D84"/>
<path d="M9.72897 18.7825C10.1776 18.7825 10.5981 18.5836 10.9065 18.2995C11.215 18.0153 11.3832 17.5607 11.3832 17.106C11.3832 16.6514 11.1869 16.2251 10.9065 15.9126C10.6262 15.6 10.2056 15.4295 9.72897 15.4295C9.28037 15.4295 8.85981 15.6284 8.5514 15.9126C8.24299 16.2251 8.07477 16.6514 8.07477 17.106C8.07477 17.5607 8.27103 17.9869 8.5514 18.2995C8.85981 18.612 9.28037 18.7825 9.72897 18.7825ZM9.28037 16.6514C9.39252 16.5377 9.53271 16.4809 9.72897 16.4809C9.8972 16.4809 10.0654 16.5377 10.1776 16.6514C10.2897 16.765 10.3458 16.9071 10.3458 17.106C10.3458 17.2765 10.2897 17.447 10.1776 17.5607C10.0654 17.6743 9.92523 17.7311 9.72897 17.7311C9.56075 17.7311 9.39252 17.6743 9.28037 17.5607C9.16822 17.447 9.11215 17.3049 9.11215 17.106C9.11215 16.9355 9.16822 16.765 9.28037 16.6514Z" fill="#2B5D84"/>
<path d="M14.3271 18.7825C14.7757 18.7825 15.1963 18.5836 15.5047 18.2995C15.8131 18.0153 15.9813 17.5607 15.9813 17.106C15.9813 16.6514 15.785 16.2251 15.5047 15.9126C15.2243 15.6 14.7757 15.4295 14.3271 15.4295C13.8785 15.4295 13.4579 15.6284 13.1495 15.9126C12.8411 16.1967 12.6729 16.6514 12.6729 17.106C12.6729 17.5607 12.8692 17.9869 13.1495 18.2995C13.4299 18.612 13.8785 18.7825 14.3271 18.7825ZM13.8505 16.6514C13.9626 16.5377 14.1028 16.4809 14.2991 16.4809C14.4673 16.4809 14.6355 16.5377 14.7477 16.6514C14.8598 16.765 14.9159 16.9071 14.9159 17.106C14.9439 17.2765 14.8598 17.447 14.7477 17.5607C14.6355 17.6743 14.4953 17.7311 14.2991 17.7311C14.1308 17.7311 13.9626 17.6743 13.8505 17.5607C13.7383 17.447 13.6822 17.3049 13.6822 17.106C13.6822 16.9355 13.7383 16.765 13.8505 16.6514Z" fill="#2B5D84"/>
<path d="M18.8972 18.7825C19.3458 18.7825 19.7664 18.5836 20.0748 18.2995C20.3832 17.9869 20.5514 17.5607 20.5514 17.106C20.5514 16.6514 20.3551 16.2251 20.0748 15.9126C19.7944 15.6 19.3738 15.4295 18.8972 15.4295C18.4486 15.4295 18.028 15.6284 17.7196 15.9126C17.4112 16.2251 17.243 16.6514 17.243 17.106C17.243 17.5607 17.4393 17.9869 17.7196 18.2995C18.028 18.612 18.4486 18.7825 18.8972 18.7825ZM18.4486 16.6514C18.5607 16.5377 18.7009 16.4809 18.8972 16.4809C19.0654 16.4809 19.2336 16.5377 19.3458 16.6514C19.4579 16.765 19.514 16.9071 19.514 17.106C19.514 17.2765 19.4579 17.447 19.3458 17.5607C19.2336 17.6743 19.0935 17.7311 18.8972 17.7311C18.729 17.7311 18.5607 17.6743 18.4486 17.5607C18.3364 17.447 18.2804 17.3049 18.2804 17.106C18.2804 16.9355 18.3364 16.765 18.4486 16.6514Z" fill="#2B5D84"/>
<path d="M5.15888 23.3858C5.60748 23.3858 6.02804 23.1869 6.33645 22.9027C6.64486 22.5902 6.81308 22.1639 6.81308 21.7093C6.81308 21.2546 6.61682 20.8284 6.33645 20.5158C6.02804 20.2033 5.60748 20.0328 5.15888 20.0328C4.71028 20.0328 4.28972 20.2317 3.98131 20.5158C3.6729 20.8284 3.50467 21.2546 3.50467 21.7093C3.50467 22.1639 3.70093 22.5902 3.98131 22.9027C4.28972 23.2153 4.71028 23.3858 5.15888 23.3858ZM4.68224 21.2546C4.79439 21.141 4.93458 21.0842 5.13084 21.0842C5.29906 21.0842 5.46729 21.141 5.57944 21.2546C5.69159 21.3683 5.74766 21.5104 5.74766 21.7093C5.7757 21.8798 5.69159 22.0503 5.57944 22.1639C5.46729 22.2776 5.3271 22.3344 5.13084 22.3344C4.96262 22.3344 4.79439 22.2776 4.68224 22.1639C4.57009 22.0503 4.51402 21.9082 4.51402 21.7093C4.51402 21.5388 4.57009 21.3683 4.68224 21.2546Z" fill="#2B5D84"/>
<path d="M9.72897 23.3858C10.1776 23.3858 10.5981 23.1869 10.9065 22.9027C11.215 22.6186 11.3832 22.1639 11.3832 21.7093C11.3832 21.2546 11.1869 20.8284 10.9065 20.5158C10.6262 20.2033 10.2056 20.0328 9.72897 20.0328C9.28037 20.0328 8.85981 20.2317 8.5514 20.5158C8.24299 20.8284 8.07477 21.2546 8.07477 21.7093C8.07477 22.1639 8.27103 22.5902 8.5514 22.9027C8.85981 23.2153 9.28037 23.3858 9.72897 23.3858ZM9.28037 21.2546C9.39252 21.141 9.53271 21.0842 9.72897 21.0842C9.8972 21.0842 10.0654 21.141 10.1776 21.2546C10.2897 21.3683 10.3458 21.5104 10.3458 21.7093C10.3458 21.8798 10.2897 22.0503 10.1776 22.1639C10.0654 22.2776 9.92523 22.3344 9.72897 22.3344C9.56075 22.3344 9.39252 22.2776 9.28037 22.1639C9.16822 22.0503 9.11215 21.9082 9.11215 21.7093C9.11215 21.5388 9.16822 21.3683 9.28037 21.2546Z" fill="#2B5D84"/>
<path d="M14.3271 23.3858C14.7757 23.3858 15.1963 23.1869 15.5047 22.9027C15.8131 22.6186 15.9813 22.1639 15.9813 21.7093C15.9813 21.2546 15.785 20.8284 15.5047 20.5158C15.1963 20.2033 14.7757 20.0328 14.3271 20.0328C13.8785 20.0328 13.4579 20.2317 13.1495 20.5158C12.8411 20.8284 12.6729 21.2546 12.6729 21.7093C12.6729 22.1639 12.8692 22.5902 13.1495 22.9027C13.4299 23.2153 13.8785 23.3858 14.3271 23.3858ZM13.8505 21.2546C13.9626 21.141 14.1028 21.0842 14.2991 21.0842C14.4673 21.0842 14.6355 21.141 14.7477 21.2546C14.8598 21.3683 14.9159 21.5104 14.9159 21.7093C14.9439 21.8798 14.8598 22.0503 14.7477 22.1639C14.6355 22.2776 14.4953 22.3344 14.2991 22.3344C14.1308 22.3344 13.9626 22.2776 13.8505 22.1639C13.7383 22.0503 13.6822 21.9082 13.6822 21.7093C13.6822 21.5388 13.7383 21.3683 13.8505 21.2546Z" fill="#2B5D84"/>
<path d="M18.8972 23.3858C19.3458 23.3858 19.7664 23.1869 20.0748 22.9027C20.3832 22.5902 20.5514 22.1639 20.5514 21.7093C20.5514 21.2546 20.3551 20.8284 20.0748 20.5158C19.7944 20.2033 19.3738 20.0328 18.8972 20.0328C18.4486 20.0328 18.028 20.2317 17.7196 20.5158C17.4112 20.8284 17.243 21.2546 17.243 21.7093C17.243 22.1639 17.4393 22.5902 17.7196 22.9027C18.028 23.2153 18.4486 23.3858 18.8972 23.3858ZM18.4486 21.2546C18.5607 21.141 18.7009 21.0842 18.8972 21.0842C19.0654 21.0842 19.2336 21.141 19.3458 21.2546C19.4579 21.3683 19.514 21.5104 19.514 21.7093C19.514 21.8798 19.4579 22.0503 19.3458 22.1639C19.2336 22.2776 19.0935 22.3344 18.8972 22.3344C18.729 22.3344 18.5607 22.2776 18.4486 22.1639C18.3364 22.0503 18.2804 21.9082 18.2804 21.7093C18.2804 21.5388 18.3364 21.3683 18.4486 21.2546Z" fill="#2B5D84"/>
</svg>
