<svg width="19" height="20" viewBox="0 0 19 20" fill="none" xmlns="http://www.w3.org/2000/svg">
<path d="M4.33328 8.20312C3.30922 8.20312 2.47616 8.99164 2.47616 9.96094V14.7266C2.47616 15.6959 3.30922 16.4844 4.33328 16.4844C5.35734 16.4844 6.1904 15.6959 6.1904 14.7266V9.96094C6.1904 8.99164 5.35734 8.20312 4.33328 8.20312Z" fill="white"/>
<path d="M1.23808 9.96145C1.23808 9.79243 1.26165 9.62915 1.29082 9.46794C0.544756 9.69618 0 10.3521 0 11.1333V13.5552C0 14.3364 0.544756 14.9924 1.29082 15.2206C1.26165 15.0594 1.23808 14.8961 1.23808 14.7271V9.96145Z" fill="white"/>
<path d="M14.2379 8.20312C13.2139 8.20312 12.3808 8.99164 12.3808 9.96094V14.7266C12.3808 15.6959 13.2139 16.4844 14.2379 16.4844C14.4241 16.4844 14.6004 16.4505 14.77 16.402C14.5395 17.125 13.8378 17.6562 12.9998 17.6562H11.0287C10.7723 16.9757 10.0916 16.4844 9.28561 16.4844C8.26155 16.4844 7.42848 17.2729 7.42848 18.2422C7.42848 19.2115 8.26155 20 9.28561 20C10.0916 20 10.7723 19.5087 11.0287 18.8281H12.9998C14.7065 18.8281 16.095 17.5138 16.095 15.8984V9.96094C16.095 8.99164 15.262 8.20312 14.2379 8.20312Z" fill="white"/>
<path d="M17.2806 9.46794C17.3098 9.62915 17.3333 9.79243 17.3333 9.96145V14.7271C17.3333 14.8961 17.3098 15.0594 17.2806 15.2206C18.0267 14.9924 18.5714 14.3364 18.5714 13.5552V11.1333C18.5714 10.3521 18.0267 9.69618 17.2806 9.46794Z" fill="white"/>
<path d="M9.28561 0C4.16523 0 0 3.9425 0 8.78906V8.80402C0.368824 8.53973 0.795549 8.34633 1.26643 8.25973C1.55577 4.30668 5.03709 1.17188 9.28561 1.17188C13.5341 1.17188 17.0154 4.30668 17.3048 8.25969C17.7756 8.34629 18.2023 8.53973 18.5712 8.80398V8.78906C18.5712 3.9425 14.406 0 9.28561 0Z" fill="white"/>
</svg>
