<svg width="44" height="42" viewBox="0 0 44 42" fill="none" xmlns="http://www.w3.org/2000/svg">
<path d="M42.5333 38.5995H41.0667V16.5995C41.0667 15.7899 40.4096 15.1328 39.6 15.1328H33.7333C32.9237 15.1328 32.2667 15.7899 32.2667 16.5995V38.5995H26.4V25.3995C26.4 24.5899 25.7429 23.9328 24.9333 23.9328H19.0667C18.2571 23.9328 17.6 24.5899 17.6 25.3995V38.5995H11.7333V16.5995C11.7333 15.7899 11.0763 15.1328 10.2667 15.1328H4.4C3.5904 15.1328 2.93333 15.7899 2.93333 16.5995V38.5995H1.46667C0.657067 38.5995 0 39.2565 0 40.0661C0 40.8757 0.657067 41.5328 1.46667 41.5328H42.5333C43.3429 41.5328 44 40.8757 44 40.0661C44 39.2565 43.3429 38.5995 42.5333 38.5995Z" fill="#008ED8"/>
<path d="M36.6669 0.466797C34.2411 0.466797 32.2669 2.44093 32.2669 4.8668C32.2669 5.166 32.2992 5.45933 32.3549 5.74386L24.784 10.2876C24.0213 9.65986 23.0621 9.2668 22.0003 9.2668C20.9384 9.2668 19.9792 9.65986 19.2165 10.2876L11.6456 5.74386C11.7013 5.45933 11.7336 5.166 11.7336 4.8668C11.7336 2.44093 9.75946 0.466797 7.33359 0.466797C4.90773 0.466797 2.93359 2.44093 2.93359 4.8668C2.93359 7.29266 4.90773 9.2668 7.33359 9.2668C8.39546 9.2668 9.35466 8.87373 10.1173 8.246L17.6883 12.7897C17.6325 13.0743 17.6003 13.3676 17.6003 13.6668C17.6003 16.0927 19.5744 18.0668 22.0003 18.0668C24.4261 18.0668 26.4003 16.0927 26.4003 13.6668C26.4003 13.3676 26.368 13.0743 26.3123 12.7897L33.8832 8.246C34.6459 8.87373 35.6051 9.2668 36.6669 9.2668C39.0928 9.2668 41.0669 7.29266 41.0669 4.8668C41.0669 2.44093 39.0928 0.466797 36.6669 0.466797ZM7.33359 6.33346C6.52399 6.33346 5.86693 5.6764 5.86693 4.8668C5.86693 4.0572 6.52399 3.40013 7.33359 3.40013C8.14319 3.40013 8.80026 4.0572 8.80026 4.8668C8.80026 5.6764 8.14319 6.33346 7.33359 6.33346ZM22.0003 15.1335C21.1907 15.1335 20.5336 14.4764 20.5336 13.6668C20.5336 12.8572 21.1907 12.2001 22.0003 12.2001C22.8099 12.2001 23.4669 12.8572 23.4669 13.6668C23.4669 14.4764 22.8099 15.1335 22.0003 15.1335ZM36.6669 6.33346C35.8603 6.33346 35.2003 5.6764 35.2003 4.8668C35.2003 4.0572 35.8603 3.40013 36.6669 3.40013C37.4736 3.40013 38.1336 4.0572 38.1336 4.8668C38.1336 5.6764 37.4736 6.33346 36.6669 6.33346Z" fill="#00498C"/>
</svg>
