<svg width="34" height="44" viewBox="0 0 34 44" fill="none" xmlns="http://www.w3.org/2000/svg">
<path d="M28.4798 0.47275C28.1624 0.0980492 27.6718 -0.0718337 27.1972 0.0282636C24.3091 0.637667 21.5642 1.84397 19.1367 3.55693C22.2318 6.4851 24.5671 10.2014 25.9071 14.3435C28.8308 23.3817 26.3129 29.7735 21.2874 33.4142C25.1407 33.3515 28.4524 31.3615 30.5278 27.9847C35.7732 19.4501 35.0602 8.23975 28.4798 0.47275Z" fill="#00498C"/>
<path d="M24.4492 20.682C23.6674 10.5726 16.5632 2.0878 6.80252 0.0282316C6.328 -0.07178 5.83741 0.0980172 5.51993 0.472718C-1.00058 8.16899 -1.82263 19.3701 3.47187 27.9847C5.47431 31.2427 8.62215 33.2038 12.2961 33.3997C12.6246 36.4714 12.6738 39.5214 12.4389 42.5203C12.3765 43.3164 12.9906 43.9998 13.7753 43.9998C14.4664 43.9998 15.0526 43.4562 15.1088 42.7391C15.512 37.5923 15.0722 31.8855 13.7584 26.3993L9.20372 24.79C8.50454 24.543 8.13357 23.7629 8.37505 23.0478C8.61654 22.3325 9.37916 21.953 10.0782 22.2001L12.8931 23.1946C11.6531 19.0685 9.9126 14.868 7.6989 10.6644C7.34809 9.99832 7.59159 9.1674 8.2428 8.80854C8.89402 8.44968 9.70627 8.69876 10.057 9.36494C10.9928 11.1419 11.8472 12.9198 12.6189 14.6936L13.1475 13.1631C13.3938 12.4496 14.1588 12.0755 14.8564 12.3277C15.5538 12.5798 15.9194 13.3624 15.673 14.0758L14.1473 18.4934C15.8024 22.975 16.9868 27.5825 17.5475 32.4353C21.9852 30.4862 24.8661 26.0722 24.4492 20.682Z" fill="#008ED8"/>
</svg>
