<svg width="44" height="38" viewBox="0 0 44 38" fill="none" xmlns="http://www.w3.org/2000/svg">
<path d="M32.3125 0.191406C27.0996 0.191406 23.7536 3.73468 22 6.92583C20.2464 3.73459 16.9004 0.191406 11.6875 0.191406C5.07349 0.191406 0 5.45807 0 12.4432C0 14.2658 0.371852 15.9485 1.05652 17.5653H10.8907L13.1125 13.2042C13.5506 12.3468 14.9806 12.3468 15.4187 13.2042L19.4219 21.0617L20.8469 18.2647C21.285 17.4073 22.715 17.4073 23.1531 18.2647L24.5781 21.0617L28.5813 13.2043C29.0194 12.3469 30.4494 12.3469 30.8875 13.2043L33.1093 17.5653H42.9435C43.6281 15.9485 44 14.2658 44 12.4432C44 5.45807 38.9265 0.191406 32.3125 0.191406Z" fill="#008ED8"/>
<path d="M32.3132 20.0959C31.8248 20.0959 31.3792 19.8253 31.1601 19.3966L29.7351 16.5996L25.732 24.457C25.5129 24.8857 25.0673 25.1563 24.5789 25.1563C24.0904 25.1563 23.6448 24.8857 23.4257 24.457L22.0007 21.66L20.5757 24.457C20.1376 25.3144 18.7076 25.3144 18.2695 24.457L14.2664 16.5996L12.8413 19.3966C12.6223 19.8253 12.1767 20.0959 11.6882 20.0959H2.41016C5.0633 24.1926 9.84152 28.0839 15.8185 33.0347C17.4965 34.4245 19.2816 35.9034 21.156 37.4983C21.3989 37.7046 21.6998 37.8072 22.0006 37.8072C22.3015 37.8072 22.6024 37.7046 22.8453 37.4983C24.7198 35.9034 26.5048 34.4246 28.1828 33.0347C34.1599 28.0839 38.938 24.1926 41.5911 20.0959H32.3132Z" fill="#00498C"/>
</svg>
