<svg width="14" height="12" viewBox="0 0 14 12" fill="none" xmlns="http://www.w3.org/2000/svg">
<path fill-rule="evenodd" clip-rule="evenodd" d="M7 6.33333C6.4211 6.33333 5.95 6.782 5.95 7.33333C5.95 7.88467 6.4211 8.33333 7 8.33333C7.5789 8.33333 8.05 7.88467 8.05 7.33333C8.05 6.782 7.5789 6.33333 7 6.33333ZM7 9.66667C5.649 9.66667 4.55 8.62 4.55 7.33333C4.55 6.04667 5.649 5 7 5C8.351 5 9.45 6.04667 9.45 7.33333C9.45 8.62 8.351 9.66667 7 9.66667ZM5.6 1.66667C5.6 1.48267 5.7575 1.33333 5.95 1.33333H8.05C8.2425 1.33333 8.4 1.48267 8.4 1.66667V2.66667H5.6V1.66667ZM11.9 2.66667H9.8V1.66667C9.8 0.748 9.0153 0 8.05 0H5.95C4.9847 0 4.2 0.748 4.2 1.66667V2.66667H2.1C0.9422 2.66667 0 3.564 0 4.66667V10C0 11.1027 0.9422 12 2.1 12H11.9C13.0578 12 14 11.1027 14 10V4.66667C14 3.564 13.0578 2.66667 11.9 2.66667Z" fill="#D5D9DC"/>
</svg>
