<svg width="17" height="12" viewBox="0 0 17 12" fill="none" xmlns="http://www.w3.org/2000/svg">
<path fill-rule="evenodd" clip-rule="evenodd" d="M16.1602 1.83943C15.6281 1.60629 15.011 1.70743 14.5869 2.10171L12.75 3.816V2.57143C12.75 1.15371 11.6068 0 10.2 0H2.55C1.1441 0 0 1.15371 0 2.57143V9.42857C0 10.8471 1.1441 12 2.55 12H10.2C11.6068 12 12.75 10.8471 12.75 9.42857V8.18486L14.5869 9.89829C14.8597 10.1529 15.2125 10.2857 15.572 10.2857C15.7701 10.2857 15.9698 10.2454 16.1602 10.1614C16.6778 9.93343 17 9.44571 17 8.88943V3.11143C17 2.55514 16.6778 2.06743 16.1602 1.83943Z" fill="#D5D9DC"/>
</svg>
